<svg xmlns="http://www.w3.org/2000/svg" xmlns:xlink="http://www.w3.org/1999/xlink" width="500" zoomAndPan="magnify" viewBox="0 0 375 374.999991" height="500" preserveAspectRatio="xMidYMid meet" version="1.0"><defs><clipPath id="be0690547f"><path d="M 13.082031 13.082031 L 361.832031 13.082031 L 361.832031 361.832031 L 13.082031 361.832031 Z M 13.082031 13.082031 " clip-rule="nonzero"/></clipPath></defs><g clip-path="url(#be0690547f)"><path fill="#007aff" d="M 187.476562 13.097656 C 91.234375 13.097656 13.097656 91.234375 13.097656 187.476562 C 13.097656 283.722656 91.234375 361.859375 187.476562 361.859375 C 283.71875 361.859375 361.855469 283.722656 361.855469 187.476562 C 361.855469 91.234375 283.71875 13.097656 187.476562 13.097656 Z M 306.042969 296.769531 C 289.625 302.648438 272.386719 303.582031 261.59375 303.25 C 209.082031 301.644531 146.136719 275.332031 129.941406 220.515625 C 124.894531 203.429688 126.328125 185.445312 134.96875 170.515625 C 131.601562 171.710938 128.3125 172.929688 125.136719 174.265625 C 114.601562 178.703125 105.378906 184.503906 99.320312 196.585938 C 93.945312 207.300781 98.46875 216.808594 104.164062 226.917969 C 108.664062 234.90625 114.949219 242.914062 116.363281 252.226562 C 117.867188 262.125 114.640625 271.402344 111.410156 280.726562 C 108.949219 287.847656 106.398438 295 108.398438 302.84375 C 111.570312 315.257812 125.027344 330.96875 134.441406 339.824219 C 147.578125 344.402344 161.488281 347.328125 175.917969 348.351562 C 168.605469 342.8125 161.257812 335.875 154.675781 328.203125 C 141.949219 313.382812 132.132812 295.875 130.398438 280.851562 C 130.089844 278.160156 132.023438 275.722656 134.714844 275.410156 C 137.40625 275.101562 139.84375 277.035156 140.15625 279.726562 C 141.703125 293.128906 150.773438 308.585938 162.125 321.804688 C 172.214844 333.558594 184.164062 343.570312 194.675781 348.601562 C 208.921875 347.976562 222.695312 345.496094 235.757812 341.398438 C 214.894531 336.015625 196.523438 324.027344 182.882812 311.105469 C 180.910156 309.242188 180.828125 306.132812 182.691406 304.164062 C 184.554688 302.195312 187.667969 302.109375 189.632812 303.976562 C 205.519531 319.015625 228.339844 332.878906 254.027344 334.414062 C 273.820312 325.425781 291.484375 312.554688 306.042969 296.769531 Z M 106.070312 326.710938 C 101.265625 319.742188 97.351562 312.5 95.710938 306.085938 C 93.035156 295.605469 95.742188 285.957031 99.039062 276.445312 C 101.566406 269.136719 104.59375 261.953125 103.417969 254.191406 C 102.238281 246.433594 96.503906 240.003906 92.75 233.34375 C 84.792969 219.214844 80.097656 205.691406 87.613281 190.714844 C 94.054688 177.867188 103.167969 170.445312 113.816406 165.0625 C 123.457031 160.195312 134.441406 157.109375 145.699219 152.734375 C 148.832031 151.519531 151.742188 150.242188 154.347656 148.8125 C 156.027344 147.621094 157.707031 146.402344 159.3125 145.132812 C 160.609375 144.105469 161.882812 143.054688 163.015625 141.9375 C 165.246094 139.164062 166.667969 135.863281 167.0625 131.789062 C 167.078125 131.652344 167.09375 131.515625 167.117188 131.378906 C 166.355469 124.71875 161.683594 120.464844 155.621094 117.664062 C 147.390625 113.863281 136.722656 112.578125 127.046875 112.578125 C 98.707031 112.578125 68.515625 131.59375 54.515625 155.238281 C 33.023438 191.550781 35.828125 231.460938 49.90625 270.835938 C 50.0625 271.28125 50.171875 271.730469 50.230469 272.179688 C 64.101562 294.59375 83.304688 313.359375 106.070312 326.710938 Z M 143.859375 174.785156 C 136.226562 187.527344 135.023438 203.039062 139.363281 217.734375 C 154.363281 268.511719 213.253906 291.945312 261.890625 293.433594 C 276.046875 293.867188 302.703125 292.308594 321.207031 277.613281 C 324.253906 273.105469 327.078125 268.4375 329.667969 263.617188 C 311.46875 271.28125 288.929688 275.90625 266.066406 276.320312 C 235.976562 276.863281 205.386719 270.09375 183.339844 253.804688 C 181.160156 252.195312 180.699219 249.117188 182.304688 246.933594 C 183.917969 244.753906 186.996094 244.292969 189.175781 245.902344 C 209.601562 260.996094 238.011719 267 265.886719 266.496094 C 292.15625 266.023438 318.003906 259.753906 336.40625 249.453125 C 340.199219 240.355469 343.183594 230.839844 345.265625 221 C 315.730469 242.171875 271.503906 252.144531 232.523438 246.621094 C 232.199219 246.605469 231.871094 246.558594 231.554688 246.480469 C 217.644531 244.414062 204.417969 240.351562 192.800781 234.109375 C 172.976562 223.449219 155.25 207.578125 147.238281 186.046875 C 146.050781 182.847656 144.640625 178.851562 143.859375 174.785156 Z M 288.980469 234.738281 C 295.6875 220.378906 299.433594 204.363281 299.433594 187.476562 C 299.433594 125.6875 249.265625 75.523438 187.476562 75.523438 C 161.027344 75.523438 136.707031 84.714844 117.539062 100.078125 C 120.722656 99.683594 123.894531 99.484375 127.046875 99.484375 C 138.59375 99.484375 151.289062 101.238281 161.117188 105.777344 C 165.472656 107.789062 169.300781 110.320312 172.367188 113.425781 C 177.25 112.433594 182.304688 111.910156 187.476562 111.910156 C 229.183594 111.910156 263.042969 145.773438 263.042969 187.476562 C 263.042969 206.929688 255.675781 224.679688 243.582031 238.082031 C 258.582031 239.199219 274.128906 237.996094 288.980469 234.738281 Z M 231.160156 236.59375 C 244.691406 224.546875 253.222656 207 253.222656 187.476562 C 253.222656 151.191406 223.761719 121.734375 187.476562 121.734375 C 184.363281 121.734375 181.300781 121.949219 178.300781 122.371094 C 179.609375 125.621094 180.324219 129.261719 180.324219 133.324219 C 180.324219 139.839844 177.613281 145.261719 173.40625 149.917969 C 170.152344 153.96875 165.828125 157.339844 160.617188 160.242188 C 158.042969 162.019531 155.566406 163.75 153.507812 165.535156 C 152.792969 167.675781 153 170.160156 153.4375 172.605469 C 154.085938 176.21875 155.390625 179.785156 156.445312 182.625 C 163.617188 201.898438 179.699219 215.914062 197.453125 225.457031 C 207.605469 230.914062 219.078125 234.574219 231.160156 236.59375 Z M 347.644531 206.527344 C 348.382812 200.277344 348.761719 193.921875 348.761719 187.476562 C 348.761719 98.464844 276.492188 26.195312 187.476562 26.195312 C 98.464844 26.195312 26.195312 98.464844 26.195312 187.476562 C 26.195312 191.183594 26.320312 194.855469 26.566406 198.496094 C 28.445312 181.40625 33.71875 164.667969 43.246094 148.566406 C 54.65625 129.289062 75.4375 112.757812 98.179688 104.710938 C 120.429688 80.71875 152.214844 65.699219 187.476562 65.699219 C 254.6875 65.699219 309.253906 120.265625 309.253906 187.476562 C 309.253906 203.039062 306.328125 217.925781 301 231.609375 C 318.960938 226.164062 335.316406 217.628906 347.644531 206.527344 Z M 347.644531 206.527344 " fill-opacity="1" fill-rule="evenodd"/></g></svg>