<svg xmlns="http://www.w3.org/2000/svg" xmlns:xlink="http://www.w3.org/1999/xlink" width="150" zoomAndPan="magnify" viewBox="0 0 112.5 112.499997" height="150" preserveAspectRatio="xMidYMid meet" version="1.0"><defs><g/><clipPath id="0190529d50"><path d="M 18.480469 0 L 94.230469 0 L 94.230469 75.75 L 18.480469 75.75 Z M 18.480469 0 " clip-rule="nonzero"/></clipPath></defs><g fill="#ffde59" fill-opacity="1"><g transform="translate(23.504543, 88.703657)"><g><path d="M 5.40625 0.21875 C 4.363281 0.21875 3.476562 0 2.75 -0.4375 C 2.03125 -0.875 1.488281 -1.472656 1.125 -2.234375 C 0.769531 -3.003906 0.59375 -3.875 0.59375 -4.84375 C 0.59375 -5.78125 0.769531 -6.628906 1.125 -7.390625 C 1.488281 -8.148438 2.035156 -8.753906 2.765625 -9.203125 C 3.492188 -9.648438 4.375 -9.875 5.40625 -9.875 C 6.425781 -9.875 7.296875 -9.648438 8.015625 -9.203125 C 8.734375 -8.753906 9.273438 -8.148438 9.640625 -7.390625 C 10.015625 -6.628906 10.203125 -5.78125 10.203125 -4.84375 C 10.203125 -3.875 10.015625 -3.003906 9.640625 -2.234375 C 9.273438 -1.472656 8.734375 -0.875 8.015625 -0.4375 C 7.296875 0 6.425781 0.21875 5.40625 0.21875 Z M 5.40625 -1.3125 C 6.019531 -1.3125 6.550781 -1.460938 7 -1.765625 C 7.445312 -2.078125 7.785156 -2.503906 8.015625 -3.046875 C 8.253906 -3.585938 8.375 -4.195312 8.375 -4.875 C 8.375 -5.53125 8.253906 -6.117188 8.015625 -6.640625 C 7.785156 -7.171875 7.445312 -7.585938 7 -7.890625 C 6.550781 -8.203125 6.019531 -8.359375 5.40625 -8.359375 C 4.757812 -8.359375 4.207031 -8.203125 3.75 -7.890625 C 3.300781 -7.585938 2.960938 -7.164062 2.734375 -6.625 C 2.515625 -6.09375 2.40625 -5.5 2.40625 -4.84375 C 2.40625 -3.789062 2.660156 -2.9375 3.171875 -2.28125 C 3.691406 -1.632812 4.4375 -1.3125 5.40625 -1.3125 Z M 5.40625 -1.3125 "/></g></g></g><g fill="#ffde59" fill-opacity="1"><g transform="translate(34.269678, 88.703657)"><g><path d="M 6.8125 -4.921875 C 7.363281 -4.742188 7.789062 -4.460938 8.09375 -4.078125 C 8.394531 -3.691406 8.546875 -3.222656 8.546875 -2.671875 C 8.546875 -1.773438 8.265625 -1.101562 7.703125 -0.65625 C 7.148438 -0.21875 6.21875 0 4.90625 0 L 1.1875 0 L 1.1875 -9.703125 L 4.90625 -9.703125 C 6.09375 -9.703125 6.929688 -9.484375 7.421875 -9.046875 C 7.921875 -8.609375 8.171875 -7.960938 8.171875 -7.109375 C 8.171875 -6.585938 8.0625 -6.144531 7.84375 -5.78125 C 7.625 -5.414062 7.28125 -5.128906 6.8125 -4.921875 Z M 2.96875 -5.578125 L 4.90625 -5.578125 C 5.875 -5.578125 6.359375 -6.035156 6.359375 -6.953125 C 6.359375 -7.421875 6.242188 -7.753906 6.015625 -7.953125 C 5.796875 -8.160156 5.425781 -8.265625 4.90625 -8.265625 L 2.96875 -8.265625 Z M 6.75 -2.796875 C 6.75 -3.265625 6.59375 -3.601562 6.28125 -3.8125 C 5.976562 -4.03125 5.519531 -4.140625 4.90625 -4.140625 L 2.96875 -4.140625 L 2.96875 -1.4375 L 4.90625 -1.4375 C 5.570312 -1.4375 6.046875 -1.539062 6.328125 -1.75 C 6.609375 -1.96875 6.75 -2.316406 6.75 -2.796875 Z M 6.75 -2.796875 "/></g></g></g><g fill="#ffde59" fill-opacity="1"><g transform="translate(43.564511, 88.703657)"><g><path d="M 9.609375 -9.703125 L 6.09375 0.109375 L 3.9375 0.109375 L 0.40625 -9.703125 L 2.234375 -9.703125 L 5.015625 -1.828125 L 7.765625 -9.703125 Z M 9.609375 -9.703125 "/></g></g></g><g fill="#ffde59" fill-opacity="1"><g transform="translate(53.562538, 88.703657)"><g><path d="M 0.890625 -2.1875 L 2.734375 -2.1875 L 2.734375 0 L 0.890625 0 Z M 0.890625 -2.1875 "/></g></g></g><g fill="#ffde59" fill-opacity="1"><g transform="translate(57.193531, 88.703657)"><g><path d="M 5.515625 0.21875 C 3.890625 0.21875 2.660156 -0.234375 1.828125 -1.140625 C 1.003906 -2.046875 0.59375 -3.273438 0.59375 -4.828125 C 0.59375 -5.773438 0.773438 -6.628906 1.140625 -7.390625 C 1.503906 -8.160156 2.054688 -8.765625 2.796875 -9.203125 C 3.535156 -9.648438 4.441406 -9.875 5.515625 -9.875 C 5.960938 -9.875 6.363281 -9.835938 6.71875 -9.765625 C 7.070312 -9.691406 7.457031 -9.570312 7.875 -9.40625 L 7.875 -7.828125 C 7.175781 -8.179688 6.398438 -8.359375 5.546875 -8.359375 C 4.910156 -8.359375 4.351562 -8.207031 3.875 -7.90625 C 3.394531 -7.601562 3.023438 -7.179688 2.765625 -6.640625 C 2.503906 -6.109375 2.375 -5.507812 2.375 -4.84375 C 2.382812 -3.757812 2.660156 -2.898438 3.203125 -2.265625 C 3.753906 -1.628906 4.523438 -1.3125 5.515625 -1.3125 C 5.953125 -1.3125 6.375 -1.367188 6.78125 -1.484375 C 7.195312 -1.609375 7.632812 -1.789062 8.09375 -2.03125 L 8.640625 -0.5625 C 8.140625 -0.300781 7.613281 -0.109375 7.0625 0.015625 C 6.519531 0.148438 6.003906 0.21875 5.515625 0.21875 Z M 5.515625 0.21875 "/></g></g></g><g fill="#ffde59" fill-opacity="1"><g transform="translate(66.271018, 88.703657)"><g><path d="M 5.40625 0.21875 C 4.363281 0.21875 3.476562 0 2.75 -0.4375 C 2.03125 -0.875 1.488281 -1.472656 1.125 -2.234375 C 0.769531 -3.003906 0.59375 -3.875 0.59375 -4.84375 C 0.59375 -5.78125 0.769531 -6.628906 1.125 -7.390625 C 1.488281 -8.148438 2.035156 -8.753906 2.765625 -9.203125 C 3.492188 -9.648438 4.375 -9.875 5.40625 -9.875 C 6.425781 -9.875 7.296875 -9.648438 8.015625 -9.203125 C 8.734375 -8.753906 9.273438 -8.148438 9.640625 -7.390625 C 10.015625 -6.628906 10.203125 -5.78125 10.203125 -4.84375 C 10.203125 -3.875 10.015625 -3.003906 9.640625 -2.234375 C 9.273438 -1.472656 8.734375 -0.875 8.015625 -0.4375 C 7.296875 0 6.425781 0.21875 5.40625 0.21875 Z M 5.40625 -1.3125 C 6.019531 -1.3125 6.550781 -1.460938 7 -1.765625 C 7.445312 -2.078125 7.785156 -2.503906 8.015625 -3.046875 C 8.253906 -3.585938 8.375 -4.195312 8.375 -4.875 C 8.375 -5.53125 8.253906 -6.117188 8.015625 -6.640625 C 7.785156 -7.171875 7.445312 -7.585938 7 -7.890625 C 6.550781 -8.203125 6.019531 -8.359375 5.40625 -8.359375 C 4.757812 -8.359375 4.207031 -8.203125 3.75 -7.890625 C 3.300781 -7.585938 2.960938 -7.164062 2.734375 -6.625 C 2.515625 -6.09375 2.40625 -5.5 2.40625 -4.84375 C 2.40625 -3.789062 2.660156 -2.9375 3.171875 -2.28125 C 3.691406 -1.632812 4.4375 -1.3125 5.40625 -1.3125 Z M 5.40625 -1.3125 "/></g></g></g><g fill="#ffde59" fill-opacity="1"><g transform="translate(77.036154, 88.703657)"><g><path d="M 10.78125 -9.703125 L 10.78125 0 L 9 0 L 9 -7.125 L 6.421875 -3.4375 L 5.515625 -3.4375 L 2.96875 -7.109375 L 2.96875 0 L 1.1875 0 L 1.1875 -9.703125 L 3.21875 -9.703125 L 5.984375 -5.6875 L 8.765625 -9.703125 Z M 10.78125 -9.703125 "/></g></g></g><g clip-path="url(#0190529d50)"><path fill="#ffde59" d="M 56.359375 0.00390625 C 35.457031 0.00390625 18.484375 16.976562 18.484375 37.878906 C 18.484375 58.785156 35.457031 75.753906 56.359375 75.753906 C 77.265625 75.753906 94.238281 58.785156 94.238281 37.878906 C 94.238281 16.976562 77.265625 0.00390625 56.359375 0.00390625 Z M 82.113281 61.617188 C 78.546875 62.894531 74.804688 63.097656 72.460938 63.027344 C 61.054688 62.675781 47.382812 56.960938 43.863281 45.054688 C 42.769531 41.34375 43.078125 37.4375 44.957031 34.195312 C 44.222656 34.453125 43.511719 34.71875 42.820312 35.007812 C 40.53125 35.972656 38.527344 37.234375 37.210938 39.855469 C 36.046875 42.183594 37.027344 44.25 38.265625 46.445312 C 39.242188 48.179688 40.609375 49.921875 40.914062 51.941406 C 41.242188 54.09375 40.539062 56.109375 39.839844 58.132812 C 39.304688 59.679688 38.75 61.234375 39.183594 62.9375 C 39.875 65.632812 42.796875 69.046875 44.839844 70.96875 C 47.695312 71.964844 50.714844 72.597656 53.851562 72.820312 C 52.261719 71.617188 50.667969 70.109375 49.238281 68.445312 C 46.472656 65.226562 44.339844 61.421875 43.964844 58.160156 C 43.894531 57.574219 44.316406 57.046875 44.902344 56.980469 C 45.484375 56.910156 46.015625 57.332031 46.082031 57.914062 C 46.417969 60.828125 48.390625 64.183594 50.855469 67.054688 C 53.046875 69.609375 55.640625 71.78125 57.925781 72.875 C 61.019531 72.738281 64.011719 72.203125 66.847656 71.3125 C 62.316406 70.140625 58.324219 67.539062 55.363281 64.730469 C 54.933594 64.328125 54.917969 63.652344 55.320312 63.222656 C 55.726562 62.796875 56.402344 62.777344 56.828125 63.183594 C 60.28125 66.449219 65.238281 69.460938 70.816406 69.792969 C 75.113281 67.84375 78.953125 65.046875 82.113281 61.617188 Z M 38.679688 68.121094 C 37.636719 66.609375 36.785156 65.035156 36.429688 63.640625 C 35.847656 61.363281 36.4375 59.269531 37.152344 57.203125 C 37.699219 55.617188 38.359375 54.054688 38.101562 52.371094 C 37.847656 50.683594 36.601562 49.289062 35.785156 47.839844 C 34.058594 44.773438 33.039062 41.835938 34.671875 38.582031 C 36.070312 35.792969 38.046875 34.179688 40.363281 33.011719 C 42.457031 31.953125 44.839844 31.28125 47.289062 30.332031 C 47.96875 30.070312 48.597656 29.792969 49.164062 29.480469 C 49.53125 29.222656 49.894531 28.957031 50.242188 28.683594 C 50.527344 28.457031 50.800781 28.230469 51.046875 27.988281 C 51.53125 27.386719 51.839844 26.667969 51.925781 25.785156 C 51.929688 25.753906 51.933594 25.722656 51.9375 25.695312 C 51.773438 24.246094 50.757812 23.324219 49.441406 22.714844 C 47.652344 21.890625 45.335938 21.609375 43.234375 21.609375 C 37.082031 21.609375 30.523438 25.742188 27.480469 30.875 C 22.8125 38.761719 23.421875 47.433594 26.480469 55.984375 C 26.515625 56.082031 26.539062 56.179688 26.550781 56.277344 C 29.5625 61.144531 33.734375 65.222656 38.679688 68.121094 Z M 46.886719 35.121094 C 45.230469 37.890625 44.96875 41.257812 45.910156 44.449219 C 49.167969 55.480469 61.960938 60.570312 72.523438 60.894531 C 75.597656 60.988281 81.390625 60.648438 85.40625 57.457031 C 86.070312 56.476562 86.683594 55.464844 87.246094 54.417969 C 83.292969 56.082031 78.398438 57.085938 73.429688 57.175781 C 66.894531 57.292969 60.25 55.824219 55.460938 52.285156 C 54.988281 51.9375 54.886719 51.265625 55.238281 50.792969 C 55.589844 50.320312 56.257812 50.21875 56.730469 50.570312 C 61.167969 53.847656 67.335938 55.152344 73.390625 55.042969 C 79.097656 54.941406 84.710938 53.578125 88.707031 51.339844 C 89.53125 49.363281 90.179688 47.296875 90.632812 45.160156 C 84.21875 49.757812 74.613281 51.925781 66.144531 50.726562 C 66.074219 50.722656 66.003906 50.710938 65.933594 50.695312 C 62.914062 50.246094 60.042969 49.363281 57.519531 48.007812 C 53.210938 45.691406 49.359375 42.246094 47.621094 37.570312 C 47.363281 36.875 47.058594 36.003906 46.886719 35.121094 Z M 78.410156 48.144531 C 79.863281 45.027344 80.679688 41.546875 80.679688 37.878906 C 80.679688 24.457031 69.78125 13.5625 56.359375 13.5625 C 50.617188 13.5625 45.335938 15.558594 41.171875 18.894531 C 41.863281 18.808594 42.550781 18.765625 43.234375 18.765625 C 45.742188 18.765625 48.5 19.148438 50.636719 20.132812 C 51.582031 20.570312 52.414062 21.121094 53.078125 21.792969 C 54.140625 21.578125 55.238281 21.464844 56.359375 21.464844 C 65.417969 21.464844 72.773438 28.820312 72.773438 37.878906 C 72.773438 42.105469 71.175781 45.960938 68.546875 48.871094 C 71.804688 49.113281 75.183594 48.851562 78.410156 48.144531 Z M 65.847656 48.546875 C 68.789062 45.929688 70.640625 42.121094 70.640625 37.878906 C 70.640625 29.996094 64.242188 23.597656 56.359375 23.597656 C 55.683594 23.597656 55.019531 23.644531 54.367188 23.738281 C 54.652344 24.445312 54.808594 25.234375 54.808594 26.117188 C 54.808594 27.53125 54.21875 28.710938 53.304688 29.722656 C 52.597656 30.601562 51.660156 31.332031 50.527344 31.964844 C 49.96875 32.347656 49.429688 32.726562 48.984375 33.113281 C 48.828125 33.578125 48.871094 34.117188 48.96875 34.648438 C 49.109375 35.433594 49.390625 36.207031 49.621094 36.824219 C 51.179688 41.011719 54.671875 44.054688 58.527344 46.128906 C 60.734375 47.3125 63.226562 48.109375 65.847656 48.546875 Z M 91.152344 42.015625 C 91.308594 40.660156 91.394531 39.277344 91.394531 37.878906 C 91.394531 18.546875 75.695312 2.847656 56.359375 2.847656 C 37.027344 2.847656 21.328125 18.546875 21.328125 37.878906 C 21.328125 38.683594 21.355469 39.480469 21.410156 40.273438 C 21.820312 36.558594 22.964844 32.925781 25.035156 29.425781 C 27.511719 25.242188 32.027344 21.648438 36.964844 19.902344 C 41.796875 14.691406 48.703125 11.429688 56.359375 11.429688 C 70.960938 11.429688 82.8125 23.28125 82.8125 37.878906 C 82.8125 41.257812 82.175781 44.492188 81.019531 47.464844 C 84.917969 46.28125 88.472656 44.429688 91.152344 42.015625 Z M 91.152344 42.015625 " fill-opacity="1" fill-rule="evenodd"/></g></svg>